<svg width="19" height="19" viewBox="0 0 19 19" fill="none" xmlns="http://www.w3.org/2000/svg">
<path fill-rule="evenodd" clip-rule="evenodd" d="M7.49262 10.4685C7.38462 10.5668 7.24887 10.6155 7.11387 10.6155C6.96087 10.6155 6.80862 10.5533 6.69762 10.4318L5.33037 8.93177C5.12112 8.70227 5.13762 8.34601 5.36712 8.13751C5.59587 7.92676 5.95212 7.94401 6.16212 8.1735L7.52937 9.67352C7.73862 9.90377 7.72212 10.2593 7.49262 10.4685ZM16.2624 7.56976L14.0566 4.33051C13.7139 3.82351 13.1439 3.52051 12.5311 3.52051H6.39087C5.77887 3.52051 5.20887 3.8235 4.86687 4.329L2.65362 7.56976C2.17287 8.27476 2.23812 9.21452 2.81337 9.85577L8.29286 15.8708C8.59061 16.1985 9.01511 16.3868 9.45761 16.3868C9.90011 16.3868 10.3246 16.1985 10.6216 15.87L16.1019 9.84827C16.6794 9.21527 16.7454 8.27851 16.2624 7.56976Z" fill="white"/>
</svg>
