<svg width="22" height="19" viewBox="0 0 22 19" fill="none" xmlns="http://www.w3.org/2000/svg">
<path opacity="0.65" d="M8.45242 12.0992C8.13353 11.7832 7.8807 11.4069 7.70864 10.9923C7.53658 10.5776 7.44873 10.1329 7.45021 9.68393C7.44896 9.00624 7.64883 8.34343 8.02451 7.7794C8.40019 7.21537 8.93478 6.77551 9.5606 6.51549C10.1864 6.25547 10.8753 6.187 11.5401 6.31875C12.2048 6.45049 12.8155 6.77653 13.2949 7.25557" stroke="white" stroke-width="0.8" stroke-linecap="round" stroke-linejoin="round"/>
<path opacity="0.65" d="M14.2431 10.2925C14.119 10.9765 13.7894 11.6065 13.2984 12.0986C12.8073 12.5907 12.1779 12.9215 11.4941 13.047" stroke="white" stroke-width="0.8" stroke-linecap="round" stroke-linejoin="round"/>
<path opacity="0.65" d="M5.08674 15.4645C3.21662 13.9202 1.76212 11.933 0.855469 9.68353C1.7729 7.42259 3.23768 5.42502 5.1182 3.8703C6.7436 2.53545 8.7755 1.79461 10.8786 1.77002C12.9914 1.79769 15.0313 2.54637 16.6604 3.89202" stroke="white" stroke-width="0.8" stroke-linecap="round" stroke-linejoin="round"/>
<path opacity="0.65" d="M18.9493 6.27441C19.7324 7.32938 20.3879 8.47337 20.902 9.6825C18.7702 14.6212 15.0037 17.5956 10.8785 17.5956C9.94575 17.5954 9.01921 17.4443 8.13477 17.1481" stroke="white" stroke-width="0.8" stroke-linecap="round" stroke-linejoin="round"/>
<path opacity="0.65" d="M19.4255 1.13672L2.33301 18.2292" stroke="white" stroke-width="0.8" stroke-linecap="round" stroke-linejoin="round"/>
</svg>
