<svg width="25" height="26" viewBox="0 0 25 26" fill="none" xmlns="http://www.w3.org/2000/svg">
<path d="M9.04898 23.3101V19.7323C9.04896 18.8222 9.79086 18.0828 10.7101 18.0767H14.0772C15.0008 18.0767 15.7495 18.8179 15.7495 19.7323V23.3212C15.7493 24.0939 16.3722 24.7254 17.1524 24.7435H19.3972C21.6349 24.7435 23.4489 22.9476 23.4489 20.7323V10.5543C23.4369 9.68279 23.0236 8.8644 22.3265 8.33203L14.6496 2.20967C13.3047 1.14365 11.3928 1.14365 10.0479 2.20967L2.40459 8.34314C1.70486 8.87335 1.29084 9.6931 1.28223 10.5654V20.7323C1.28223 22.9476 3.09625 24.7435 5.33396 24.7435H7.57868C8.37831 24.7435 9.02653 24.1018 9.02653 23.3101" stroke="white" stroke-width="1.5" stroke-linecap="round" stroke-linejoin="round"/>
</svg>
