<svg width="29" height="29" viewBox="0 0 29 29" fill="none" xmlns="http://www.w3.org/2000/svg">
<path fill-rule="evenodd" clip-rule="evenodd" d="M14.223 25.3487C9.91598 25.3487 6.23779 24.6784 6.23779 21.9943C6.23779 19.31 9.89264 16.832 14.223 16.832C18.5303 16.832 22.2084 19.286 22.2084 21.9703C22.2084 24.6534 18.5536 25.3487 14.223 25.3487Z" fill="white"/>
<path fill-rule="evenodd" clip-rule="evenodd" d="M14.2142 13.1124C17.0408 13.1124 19.3316 10.8215 19.3316 7.99496C19.3316 5.16844 17.0408 2.87646 14.2142 2.87646C11.3877 2.87646 9.09573 5.16844 9.09573 7.99496C9.08619 10.8119 11.3612 13.1029 14.1781 13.1124C14.1908 13.1124 14.2025 13.1124 14.2142 13.1124Z" fill="white"/>
</svg>
