<svg width="18" height="17" viewBox="0 0 18 17" fill="none" xmlns="http://www.w3.org/2000/svg">
<path fill-rule="evenodd" clip-rule="evenodd" d="M7.13372 11.5303C3.82545 11.5303 1 12.0303 1 14.0339C1 16.0374 3.80824 16.5555 7.13372 16.5555C10.4428 16.5555 13.2674 16.0546 13.2674 14.0519C13.2674 12.0492 10.4601 11.5303 7.13372 11.5303Z" stroke="white" stroke-width="0.8" stroke-linecap="round" stroke-linejoin="round"/>
<path fill-rule="evenodd" clip-rule="evenodd" d="M7.13368 8.67279C9.30505 8.67279 11.065 6.9128 11.065 4.74142C11.065 2.57005 9.30505 0.810059 7.13368 0.810059C4.96317 0.810059 3.20315 2.57005 3.20315 4.74142C3.19543 6.90505 4.94251 8.66504 7.107 8.67279H7.13368Z" stroke="white" stroke-width="0.8" stroke-linecap="round" stroke-linejoin="round"/>
<path d="M15.1611 5.9043V9.35543" stroke="white" stroke-width="0.8" stroke-linecap="round" stroke-linejoin="round"/>
<path d="M16.9213 7.62988H13.4014" stroke="white" stroke-width="0.8" stroke-linecap="round" stroke-linejoin="round"/>
</svg>
